Coordinates
version=1
nRows=17
nColumns=40
inDegrees=yes

Units are S.I. units (second, meters, Newtons, ...)
Angles are in degrees.

endheader
time	pelvis_tilt	pelvis_list	pelvis_rotation	pelvis_tx	pelvis_ty	pelvis_tz	hip_flexion_r	hip_adduction_r	hip_rotation_r	knee_angle_r	knee_angle_r_beta	ankle_angle_r	subtalar_angle_r	mtp_angle_r	hip_flexion_l	hip_adduction_l	hip_rotation_l	knee_angle_l	knee_angle_l_beta	ankle_angle_l	subtalar_angle_l	mtp_angle_l	lumbar_extension	lumbar_bending	lumbar_rotation	arm_flex_r	arm_add_r	arm_rot_r	elbow_flex_r	pro_sup_r	wrist_flex_r	wrist_dev_r	arm_flex_l	arm_add_l	arm_rot_l	elbow_flex_l	pro_sup_l	wrist_flex_l	wrist_dev_l
     51.96750000	     -6.68608880	     -4.98607898	      7.26249709	      0.88704831	      0.91779334	      0.51232805	      1.34740573	      2.06447087	    -16.06640746	     16.24190017	     16.24190017	     17.70378553	     -4.29013821	     -1.15530172	     28.79924531	     -5.04670257	      3.23804019	     24.90423616	     24.90423616	      6.09120353	    -10.74522870	     -0.82239550	     -7.69917084	      2.56741316	      3.59715515	     46.97213069	    -17.83119848	    -13.17850661	     75.40835493	     44.88856652	      0.00000000	      0.00000000	     -6.29494706	    -10.91724423	     13.13246502	     34.66449363	     44.20106214	      0.00000000	      0.00000000
     51.98600000	     -6.73315608	     -4.80518991	      6.77885561	      0.88791730	      0.91880778	      0.50902763	      1.29524126	      1.41501599	    -16.16783534	     16.95065157	     16.95065157	     17.48323718	     -3.52802364	     -1.61357229	     28.17376457	     -4.78455338	      3.04460369	     24.79106327	     24.79106327	      6.58549272	    -11.23708272	     -0.22881087	     -7.60051200	      2.21873170	      4.32384771	     46.50512631	    -18.01428729	    -13.46168858	     72.98752813	     44.98650896	      0.00000000	      0.00000000	     -5.18694907	    -11.33564421	     12.37882130	     35.46613452	     44.33590165	      0.00000000	      0.00000000
     52.00450000	     -6.84452221	     -4.75810973	      6.36433079	      0.88863286	      0.91967070	      0.50568371	      1.38646434	      0.92596610	    -16.14758042	     17.69721774	     17.69721774	     17.10737897	     -3.18117683	     -2.11981783	     27.67531673	     -4.65450482	      2.79167808	     24.69137259	     24.69137259	      7.14230318	    -11.43373129	      0.16106863	     -7.48406104	      2.09498277	      4.21729844	     46.34438188	    -17.38105532	    -13.48793137	     70.99854375	     45.06278803	      0.00000000	      0.00000000	     -4.45510508	    -11.67827929	     11.62432160	     35.87231243	     44.46842966	      0.00000000	      0.00000000
     52.02300000	     -6.89321438	     -4.71253609	      5.96609080	      0.88932802	      0.92063660	      0.50228912	      1.49145581	      0.44548621	    -15.97201124	     18.56336278	     18.56336278	     16.69317095	     -3.10443132	     -2.60414286	     27.07816297	     -4.53953106	      2.48059813	     24.52182686	     24.52182686	      7.58078372	    -11.51565986	      0.32477361	     -7.44339256	      2.05536508	      4.17849228	     45.87788467	    -16.90179464	    -13.42948410	     69.29126445	     45.12278690	      0.00000000	      0.00000000	     -3.56980497	    -12.06123492	     11.01526735	     36.17261333	     44.57631303	      0.00000000	      0.00000000
     52.04150000	     -6.91632416	     -4.65024022	      5.59133149	      0.88997050	      0.92161590	      0.49882513	      1.70159792	     -0.09355146	    -15.79881738	     19.66585351	     19.66585351	     16.26537046	     -3.13256479	     -3.15229767	     26.43412360	     -4.39774519	      2.12977765	     24.30083510	     24.30083510	      7.94465123	    -11.58907751	      0.40852672	     -7.44663756	      2.00104742	      4.12507220	     45.20028377	    -16.53891707	    -13.38592346	     67.65707860	     45.17801928	      0.00000000	      0.00000000	     -2.59976163	    -12.42286977	     10.56530009	     36.37244008	     44.65907401	      0.00000000	      0.00000000
     52.06000000	     -6.94630421	     -4.59612014	      5.23577540	      0.89054619	      0.92253198	      0.49530494	      2.06021210	     -0.67246431	    -15.59715573	     21.00586054	     21.00586054	     15.75703940	     -3.21476737	     -3.94153807	     25.79522153	     -4.23860356	      1.84526034	     24.05737529	     24.05737529	      8.28749191	    -11.67147347	      0.48566159	     -7.41591165	      1.97335701	      4.05782566	     44.47622987	    -16.20383858	    -13.36701729	     65.70553372	     45.24466855	      0.00000000	      0.00000000	     -1.52666596	    -12.72854686	     10.15710798	     36.45101259	     44.73786521	      0.00000000	      0.00000000
     52.07850000	     -6.80568167	     -4.85775826	      4.99874808	      0.89126558	      0.92372358	      0.49175646	      2.06316727	     -0.81718741	    -15.48575475	     21.92929431	     21.92929431	     15.16406108	     -3.19633975	     -4.09556269	     25.11249220	     -4.38401915	      1.73150276	     23.96608954	     23.96608954	      8.62744174	    -11.79540070	      0.45179264	     -7.62569792	      2.39273801	      3.73058039	     43.31182276	    -15.72229149	    -13.24228875	     64.98598510	     45.25936348	      0.00000000	      0.00000000	     -0.56597454	    -13.06345549	     10.02200680	     36.66338888	     44.76923725	      0.00000000	      0.00000000
     52.09700000	     -6.87223126	     -4.50025073	      4.62459046	      0.89156987	      0.92422582	      0.48787553	      2.88892372	     -1.87903954	    -15.10770722	     23.93411072	     23.93411072	     13.27148154	     -4.37306753	     -9.38788103	     24.49205754	     -3.86066178	      1.35675953	     23.73129614	     23.73129614	      9.04787472	    -11.91175941	      0.95073102	     -7.40808607	      2.13899353	      3.06635418	     43.90786596	    -14.70232636	    -13.35425533	     58.76254565	     45.49278017	      0.00000000	      0.00000000	      0.62745962	    -13.05585466	      8.61516950	     35.48450001	     45.03997015	      0.00000000	      0.00000000
     52.11550000	     -6.82261225	     -4.40132956	      4.28791616	      0.89210421	      0.92496069	      0.48408424	      3.63345847	     -2.64450577	    -14.76112122	     26.07867903	     26.07867903	     12.61328755	     -4.74879704	    -10.23737021	     23.81784310	     -3.61750993	      1.05598923	     23.55698852	     23.55698852	      9.32903932	    -12.05350187	      0.99620616	     -7.47946088	      2.16347208	      3.15365541	     42.29137706	    -14.77437800	    -13.31498922	     57.37734548	     45.53325335	      0.00000000	      0.00000000	      1.83938321	    -13.32592258	      8.38747170	     35.78176132	     45.09373377	      0.00000000	      0.00000000
     52.13400000	     -6.71602416	     -4.39506776	      3.97292311	      0.89259750	      0.92552872	      0.48023845	      4.37537154	     -3.28690895	    -14.28910352	     28.15974027	     28.15974027	     10.89399675	     -5.82150954	    -13.58528705	     23.21196055	     -3.39486898	      1.06447879	     23.59476917	     23.59476917	      9.73867962	    -12.59905106	      1.45901182	     -7.50989661	      2.34213504	      3.20056036	     41.27952129	    -14.77067199	    -13.31729315	     53.86272105	     45.65429740	      0.00000000	      0.00000000	      3.47245787	    -13.34524981	      8.29200206	     34.95279828	     45.15906839	      0.00000000	      0.00000000
     52.15250000	     -6.50475472	     -4.31777338	      3.66304589	      0.89312535	      0.92600731	      0.47639709	      5.31799558	     -4.09052818	    -13.80580827	     30.90239303	     30.90239303	      9.96594694	     -6.36368073	    -14.45157307	     22.53375631	     -3.17237604	      0.78189961	     23.70514438	     23.70514438	     10.11463126	    -12.72134049	      1.40782977	     -7.74556112	      2.49884780	      2.93234621	     39.56926127	    -14.46953271	    -13.25152351	     52.70700982	     45.68350826	      0.00000000	      0.00000000	      4.56593357	    -13.59627325	      8.18815713	     35.23028531	     45.19196719	      0.00000000	      0.00000000
     52.17100000	     -6.53913963	     -4.26181088	      3.23188406	      0.89340133	      0.92578393	      0.47264665	      6.82936481	     -4.88594380	    -13.02302106	     34.03156306	     34.03156306	      8.51177923	     -7.48110457	    -16.13851490	     22.23151833	     -2.92505945	      0.63554442	     24.00512369	     24.00512369	     10.56244076	    -13.25058211	      1.56984150	     -7.70460643	      2.66545532	      3.08417916	     37.74489264	    -14.59340582	    -13.25454440	     50.47975474	     45.75451049	      0.00000000	      0.00000000	      5.91317914	    -13.65618814	      8.15139533	     35.39246291	     45.22399323	      0.00000000	      0.00000000
     52.18950000	     -6.28596495	     -4.32622160	      2.86692331	      0.89377954	      0.92575929	      0.46899014	      7.94982155	     -5.38223563	    -12.05705941	     36.74585917	     36.74585917	      5.38011434	    -10.14059081	    -21.27035346	     21.76960066	     -2.77062139	      0.73499704	     24.58954253	     24.58954253	     11.41878937	    -13.84674724	      2.76649727	     -7.85373266	      2.99439196	      2.95486481	     36.88684999	    -14.28583799	    -13.42770006	     45.58765483	     45.93097596	      0.00000000	      0.00000000	      7.57613006	    -13.68169570	      8.58897550	     34.34119436	     45.22649883	      0.00000000	      0.00000000
     52.20800000	     -6.07393937	     -4.38725300	      2.44175164	      0.89404094	      0.92517425	      0.46548089	      9.51361103	     -5.93955519	    -11.06290016	     40.26156771	     40.26156771	      3.54615139	    -11.60002436	    -22.22664929	     21.47879370	     -2.66017857	      0.66904206	     25.38069404	     25.38069404	     12.07947125	    -14.44873447	      3.04627005	     -8.07399165	      3.33185474	      3.02463948	     34.91029708	    -14.24644907	    -13.57785357	     43.47255830	     46.00148884	      0.00000000	      0.00000000	      8.81896765	    -13.78227272	      8.58530285	     34.86554615	     45.26277349	      0.00000000	      0.00000000
     52.22650000	     -5.82996158	     -4.38067561	      1.99378277	      0.89422642	      0.92428374	      0.46208004	     11.19689629	     -6.56572267	    -10.07734524	     43.97929448	     43.97929448	      1.76906754	    -12.69499904	    -22.46370100	     21.18620158	     -2.48390332	      0.56240137	     26.22470560	     26.22470560	     12.69473732	    -15.08537689	      3.02159332	     -8.38295137	      3.60625491	      2.86343334	     32.76361272	    -13.98612091	    -13.58168022	     41.85506363	     46.04810975	      0.00000000	      0.00000000	     10.00877465	    -13.95410523	      8.54159661	     35.28537476	     45.29117778	      0.00000000	      0.00000000
     52.24500000	     -5.57600600	     -4.53332147	      1.54003896	      0.89432391	      0.92316116	      0.45899124	     12.93935767	     -6.79217711	     -8.87082411	     47.61617283	     47.61617283	     -0.39461373	    -14.59729360	    -22.41808217	     21.09625292	     -2.46286826	      0.60067581	     27.48905778	     27.48905778	     14.07901945	    -15.60131869	      4.82052159	     -8.52558696	      4.04148059	      2.88634898	     31.42327961	    -13.71442947	    -14.19236417	     37.26121352	     46.23776641	      0.00000000	      0.00000000	     11.52147771	    -14.08412098	      9.24738929	     35.13831086	     45.27092094	      0.00000000	      0.00000000
     52.26350000	     -5.30038201	     -4.59134467	      1.04537622	      0.89437154	      0.92171392	      0.45612499	     14.74758285	     -7.11814750	     -7.79213263	     51.32077597	     51.32077597	     -2.30275132	    -15.89363535	    -21.65905305	     20.91239169	     -2.38321984	      0.48922592	     28.57806659	     28.57806659	     14.75066287	    -16.29556852	      4.72219747	     -8.82797085	      4.36333783	      2.85368934	     29.02402003	    -13.51868899	    -14.26197069	     35.71606806	     46.28448151	      0.00000000	      0.00000000	     12.74797280	    -14.25038293	      9.15621656	     35.78465775	     45.30728835	      0.00000000	      0.00000000
